<svg xmlns="http://www.w3.org/2000/svg" version="1.1" xmlns:xlink="http://www.w3.org/1999/xlink" xmlns:svgjs="http://svgjs.dev/svgjs" width="1000" height="1000" viewBox="0 0 1000 1000"><rect width="1000" height="1000" fill="#0a1627"></rect><g transform="matrix(0.7,0,0,0.7,150.0000000000001,106.25)"><svg viewBox="0 0 320 360" data-background-color="#0a1627" preserveAspectRatio="xMidYMid meet" height="1125" width="1000" xmlns="http://www.w3.org/2000/svg" xmlns:xlink="http://www.w3.org/1999/xlink"><g id="tight-bounds" transform="matrix(1,0,0,1,0,0)"><svg viewBox="0 0 320 360" height="360" width="320"><g><svg></svg></g><g><svg viewBox="0 0 320 360" height="360" width="320"><g><path xmlns="http://www.w3.org/2000/svg" d="M20.961 227.22l3.726 4.658-1.863-6.056c-0.466-2.795-3.726 0.466-1.863 1.398M25.153 224.425c1.397 2.329 2.795 4.658 2.795 6.987 0 3.261 2.795 4.658 5.123 5.589-3.261-3.726-5.124-13.974-7.918-12.576M204.017 26.929c7.918 0 15.371-0.932 23.756 0.931 20.495 5.124 37.729 15.371 49.374 29.811l32.606 52.169c1.397 13.042 4.192 27.482 3.726 43.319 3.261 0 2.795-4.658 6.521-5.59-3.726 9.316-5.59 20.961-6.521 34.469-2.329-7.453 0-18.632 0.466-24.687-3.261 5.124-5.124 1.397-5.124-0.932 0.466-3.726-1.397-3.261-2.795-4.658-5.124-4.658-8.384-9.782-12.11-17.7 2.329-6.055 2.795-14.905-4.658-19.563-2.329-1.397-5.124-3.726-6.521-7.453-1.863-5.124-5.124-11.179-4.193-19.097 0.466-2.329-6.987 5.124-11.179 1.863-18.166-12.576-36.332-27.016-58.224-39.127-11.645 0-20.029-4.192-24.221-9.316-3.726-4.658-0.932-10.713 4.658-11.179 3.261 0 6.987-0.932 9.782 0.932 0.466-1.863 2.329-4.192 4.657-4.192M157.904 16.215l0.932 0.466c4.658 0.932 6.987 7.453 12.11 5.124 0 3.261 0.466 6.521-0.466 8.85-1.397 3.726-5.59 3.726-8.85 3.726-31.208-1.863-49.374 11.179-68.471 22.358-5.124 3.261-10.713 5.59-14.906 9.782-20.029 18.632-41.921 35.866-47.045 70.335l-4.192 38.195c-0.466 4.192-5.124 8.384-4.192 13.508l3.26 22.824c-3.261-3.261-5.124 0.932-4.192 2.795 0.466 1.397 2.329 6.055 5.124 1.863 3.726 6.987 7.453 20.495 12.576 26.55 15.837 18.632 36.332 35.4 53.101 52.169 4.192-0.932 7.453-0.932 8.384-3.727 1.397 2.795-1.397 5.59-3.726 6.056 7.453 4.658 15.837 8.85 27.016 9.781 14.44 0.932 27.948 3.261 40.524 6.522 6.521-1.863 13.042-2.795 20.029-3.261 2.329 0 3.726-3.726 6.521-4.658l0.466-4.658c2.795 4.192 2.329-1.397 0.466-4.192 3.261 2.795 4.192 5.124 5.589 6.987 0-1.397 3.726-6.521 3.727-0.466l0.931-6.055c1.397-0.932 1.863 5.124 3.261 0.931 1.397-4.192 4.192-0.932 6.987-2.329-0.932 1.863-0.466 5.59 2.794 3.261l3.727-3.261c2.329 5.59 6.055 3.261 7.918 2.329 20.495-13.042 40.99-28.413 60.553-43.784l-0.466 6.055 2.329-7.453c2.329 2.329 4.192 0.466 5.124-0.931 2.795-4.658 6.521-9.316 12.577-13.508-7.453 20.029-16.303 35.866-27.482 48.908l-4.658 5.59c0 3.261-0.932 7.453-4.658 7.918-1.863 0.466-5.59-0.932-8.384 1.863-1.397 1.863 3.261 5.59-0.466 2.795-3.261-2.329-6.521 0-10.248 0.932-2.795 0.932 1.863 3.726 2.795 5.589 0.932 1.863 1.863 3.726 1.398 6.056l-5.124-5.59c-6.055 3.261-9.782 9.316-14.906 13.974-2.329 1.863-1.397 5.124-1.397 7.918-3.261 0-6.987-0.932-8.85 0.932-1.397 1.863-0.932 4.658-0.932 7.453-4.658-0.466-5.124-7.453-9.315-6.056-4.192 0.932-8.85 1.397-12.577 3.727 2.795 5.59-4.658 2.329-3.726 3.26-6.987-4.192-13.042-7.453-20.495-4.658-15.837-5.124-35.4-2.795-49.84-0.931 0-2.329 0.466-4.658-0.466-5.124-0.932 2.329-3.726 1.397-3.26 1.397-8.85-6.055-17.7-9.782-27.016-14.905-8.384 0.932-16.303-3.261-18.632-5.59-6.521-6.055-13.974-2.795-20.029-4.192-13.042-3.261-17.7-16.769-19.098-26.084-0.932-4.658-4.658-6.521-6.055-6.056-6.055-19.563-15.371-37.263-22.824-55.429-1.863-4.658-1.397-9.316-1.397-14.44 2.329 0.932 4.658 0.466 4.192-2.794-2.329-15.371-7.918-27.016-13.974-38.195 3.261-15.837 3.726-34.469 11.179-48.443 6.521-12.576 18.632-19.098 27.016-29.811 2.795-3.726 2.795-8.85 5.59-12.11 9.316-9.316 18.632-19.098 28.879-27.482 4.658-3.726 10.247 0 17.234-1.397 2.329-8.384 11.645-15.837 20.495-13.508 3.726 0.932 11.179-8.85 13.508-9.782 3.726-1.397 1.863 3.726 1.863 6.987 8.85-6.987 20.961-10.713 32.14-14.906" fill="#fe0039" fill-rule="nonzero" stroke="none" stroke-width="1" stroke-linecap="butt" stroke-linejoin="miter" stroke-miterlimit="10" stroke-dasharray="" stroke-dashoffset="0" font-family="none" font-weight="none" font-size="none" text-anchor="none" style="mix-blend-mode: normal" data-fill-palette-color="tertiary"></path></g><g transform="matrix(1,0,0,1,64,90)"><svg viewBox="0 0 192 180" height="180" width="192"><g><svg viewBox="0 0 192 180" height="180" width="192"><g><svg viewBox="0 0 192 180" height="180" width="192"><g id="textblocktransform"><svg viewBox="0 0 192 180" height="180" width="192" id="textblock"><g><svg viewBox="0 0 192 180" height="180" width="192"><g transform="matrix(1,0,0,1,42.966991411008934,36.966991411008934)"><svg viewBox="0 0 106.06601717798213 106.06601717798213" height="106.06601717798213" width="106.06601717798213"><g><circle r="53" cx="53.033008588991066" cy="53.033008588991066" fill="#c1c1c1" data-fill-palette-color="accent"></circle><svg xmlns="http://www.w3.org/2000/svg" xmlns:xlink="http://www.w3.org/1999/xlink" version="1.1" x="15.90990257669732" y="15.90990257669732" viewBox="0.35833266377449036 0.3587188720703125 89.28327941894531 89.28765869140625" enable-background="new 0 0 90 90" xml:space="preserve" height="74.24621202458749" width="74.24621202458749" class="icon-o-0" data-fill-palette-color="quaternary" id="o-0"><polygon points="57.928,58.169 57.875,76.027 45.397,63.548 45.397,45.639 " fill="#0a1627" data-fill-palette-color="quaternary"></polygon><polygon points="76.027,57.875 58.475,57.927 45.826,45.279 63.432,45.279 " fill="#0a1627" data-fill-palette-color="quaternary"></polygon><polygon points="76.027,32.125 63.432,44.721 45.707,44.721 58.355,32.073 " fill="#0a1627" data-fill-palette-color="quaternary"></polygon><polygon points="44.838,45.59 44.838,63.314 32.125,76.027 32.074,58.355 " fill="#0a1627" data-fill-palette-color="quaternary"></polygon><polygon points="57.928,31.712 45.397,44.243 45.397,26.452 57.875,13.974 " fill="#0a1627" data-fill-palette-color="quaternary"></polygon><polygon points="44.838,26.687 44.838,44.291 32.074,31.526 32.125,13.974 " fill="#0a1627" data-fill-palette-color="quaternary"></polygon><polygon points="44.479,44.721 26.569,44.721 13.974,32.125 31.832,32.073 " fill="#0a1627" data-fill-palette-color="quaternary"></polygon><polygon points="44.36,45.279 31.712,57.927 13.974,57.875 26.569,45.279 " fill="#0a1627" data-fill-palette-color="quaternary"></polygon><rect x="58.48" y="58.48" width="18.049" height="18.049" fill="#0a1627" data-fill-palette-color="quaternary"></rect><polygon points="76.527,13.474 76.527,31.516 58.914,31.516 58.912,31.518 58.484,31.516 58.484,13.474 " fill="#0a1627" data-fill-palette-color="quaternary"></polygon><polygon points="31.518,30.971 31.516,31.516 13.474,31.516 13.474,13.474 31.516,13.474 31.516,30.968 " fill="#0a1627" data-fill-palette-color="quaternary"></polygon><rect x="13.471" y="58.48" width="18.05" height="18.049" fill="#0a1627" data-fill-palette-color="quaternary"></rect><rect x="67.864" y="35.981" transform="matrix(0.7071 -0.7071 0.7071 0.7071 -9.3022 67.5465)" width="18.042" height="18.042" fill="#0a1627" data-fill-palette-color="quaternary"></rect><rect x="35.979" y="4.094" transform="matrix(0.7071 -0.7071 0.7071 0.7071 3.9068 35.6621)" width="18.042" height="18.042" fill="#0a1627" data-fill-palette-color="quaternary"></rect><rect x="4.095" y="35.98" transform="matrix(0.7071 -0.7071 0.7071 0.7071 -27.9787 22.4536)" width="18.041" height="18.041" fill="#0a1627" data-fill-palette-color="quaternary"></rect><rect x="35.98" y="67.865" transform="matrix(0.7071 -0.7071 0.7071 0.7071 -41.1877 54.3437)" width="18.04" height="18.041" fill="#0a1627" data-fill-palette-color="quaternary"></rect></svg></g></svg></g><path d="M95.953 180C95.332 179.994 94.789 179.938 94.324 179.833 93.859 179.727 93.31 179.574 92.677 179.372V179.372C92.408 179.275 92.136 179.188 91.86 179.111 91.583 179.034 91.331 178.988 91.101 178.973V178.973C90.919 178.957 90.788 178.936 90.707 178.908 90.626 178.881 90.475 178.795 90.254 178.651V178.651C90.397 178.477 90.503 178.333 90.571 178.218 90.64 178.097 90.696 177.929 90.738 177.714V177.714C90.998 176.615 91.435 174.567 92.05 171.568 92.672 168.563 92.985 166.861 92.988 166.463V166.463C92.991 166.199 92.847 166.066 92.557 166.064V166.064C92.334 166.062 91.915 166.108 91.3 166.204V166.204C90.211 166.343 89.515 166.41 89.211 166.408V166.408C88.914 166.405 88.692 166.349 88.545 166.24 88.404 166.13 88.335 165.93 88.337 165.64V165.64C88.339 165.458 88.375 165.266 88.444 165.064V165.064C88.706 165.188 88.938 165.271 89.141 165.313 89.349 165.356 89.694 165.379 90.173 165.384V165.384C90.531 165.387 91 165.378 91.581 165.356 92.168 165.334 92.607 165.318 92.898 165.307V165.307C94.269 165.239 95.235 165.207 95.795 165.212V165.212C98.198 165.234 100.118 165.775 101.553 166.835 102.981 167.888 103.684 169.616 103.662 172.019V172.019C103.647 173.653 103.296 175.078 102.61 176.293 101.917 177.509 100.987 178.436 99.82 179.073 98.653 179.704 97.364 180.013 95.953 180ZM95.961 179.119C97.156 179.13 98.246 178.826 99.23 178.207 100.222 177.595 101.009 176.734 101.593 175.626 102.184 174.517 102.486 173.257 102.499 171.847V171.847C102.518 169.733 101.908 168.229 100.667 167.333 99.433 166.444 97.834 165.991 95.869 165.973V165.973C95.295 165.967 94.9 166.004 94.683 166.083 94.46 166.169 94.32 166.326 94.264 166.555V166.555C93.572 169.83 92.876 173.203 92.176 176.674V176.674C92.07 177.098 92.017 177.384 92.016 177.533V177.533C92.014 177.715 92.131 177.882 92.366 178.032V178.032C92.815 178.354 93.363 178.612 94.009 178.807 94.649 179.009 95.299 179.113 95.961 179.119Z" fill="#fe0039" data-fill-palette-color="primary"></path><path d="M96.188 16.53C95.493 16.537 94.885 16.486 94.364 16.376 93.842 16.26 93.226 16.101 92.515 15.899V15.899C92.211 15.794 91.902 15.699 91.591 15.615 91.286 15.537 91.002 15.489 90.739 15.472V15.472C90.543 15.46 90.398 15.441 90.303 15.415 90.215 15.382 90.045 15.29 89.794 15.137V15.137C89.947 14.94 90.06 14.773 90.133 14.637 90.213 14.508 90.271 14.322 90.309 14.078V14.078C90.574 12.847 91.019 10.547 91.647 7.178 92.274 3.816 92.585 1.913 92.581 1.467V1.467C92.578 1.17 92.414 1.023 92.09 1.026V1.026C91.847 1.029 91.379 1.088 90.684 1.203V1.203C89.478 1.384 88.705 1.476 88.368 1.48V1.48C88.03 1.483 87.78 1.425 87.617 1.305 87.453 1.185 87.37 0.963 87.367 0.639V0.639C87.365 0.443 87.403 0.23 87.482 0V0C87.774 0.132 88.034 0.221 88.264 0.265 88.494 0.31 88.876 0.33 89.409 0.325V0.325C89.814 0.32 90.341 0.298 90.989 0.258 91.643 0.224 92.129 0.196 92.446 0.172V0.172C93.984 0.069 95.067 0.014 95.695 0.007V0.007C98.382-0.02 100.535 0.538 102.153 1.683 103.779 2.835 104.605 4.754 104.633 7.441V7.441C104.651 9.263 104.286 10.864 103.537 12.242 102.795 13.613 101.78 14.667 100.491 15.402 99.202 16.138 97.768 16.514 96.188 16.53ZM96.178 15.538C97.508 15.524 98.719 15.161 99.813 14.447 100.899 13.741 101.76 12.763 102.395 11.514 103.024 10.266 103.33 8.851 103.314 7.272V7.272C103.29 4.909 102.581 3.242 101.187 2.27 99.786 1.306 97.989 0.835 95.795 0.857V0.857C95.154 0.863 94.709 0.912 94.46 1.002 94.218 1.099 94.068 1.28 94.01 1.544V1.544C93.311 5.217 92.604 8.998 91.887 12.888V12.888C91.784 13.361 91.733 13.682 91.735 13.851V13.851C91.737 14.054 91.871 14.238 92.136 14.404V14.404C92.646 14.75 93.263 15.027 93.987 15.236 94.712 15.445 95.442 15.545 96.178 15.538Z" fill="#fe0039" data-fill-palette-color="primary"></path><path d="M12.102 91.111C12.102 90.079 12.939 89.242 13.972 89.242 15.004 89.242 15.841 90.079 15.841 91.111 15.841 92.144 15.004 92.981 13.972 92.981 12.939 92.981 12.102 92.144 12.102 91.111ZM176.159 91.111C176.159 90.079 176.996 89.242 178.028 89.242 179.061 89.242 179.898 90.079 179.898 91.111 179.898 92.144 179.061 92.981 178.028 92.981 176.996 92.981 176.159 92.144 176.159 91.111Z" fill="#fe0039" data-fill-palette-color="primary"></path></svg></g></svg></g></svg></g></svg></g></svg></g></svg></g><defs><mask id="c48a5fac-73f4-4105-902f-9ff0bc533a46"><rect width="640" height="400" fill="white"></rect><rect width="348.05760000000004" height="176.5008" fill="black" x="145.97119999999998" y="111.7496" id="transform-me" transform="matrix(1,0,0,1,-122.24000000000001,-76.4)"></rect></mask></defs></svg><rect width="320" height="360" fill="none" stroke="none" visibility="hidden"></rect></g></svg></g></svg>